<?xml version="1.0" encoding="UTF-8" standalone="no"?>
<!-- Created with Inkscape (http://www.inkscape.org/) -->

<svg
   width="1110"
   height="875"
   viewBox="0 0 1110 875"
   version="1.1"
   id="svg1"
   xmlns="http://www.w3.org/2000/svg"
   xmlns:svg="http://www.w3.org/2000/svg">
  <defs
     id="defs1" />
  <g
     id="layer1"
     transform="translate(157.5,67.50001)">
    <g
       id="g4"
       transform="translate(963.28585,820.00975)">
      <path
         style="display:inline;fill:none;stroke:#000000;stroke-width:315;stroke-linecap:round;stroke-linejoin:round;stroke-dasharray:none;stroke-opacity:1"
         d="M -179.9999,-720.00001 -360,-180 h -180 l 180,-540.00001 z"
         id="path3-64-2-7" />
      <path
         style="fill:none;stroke:#000000;stroke-width:315;stroke-linecap:round;stroke-linejoin:round;stroke-dasharray:none;stroke-opacity:1"
         d="m -951.5657,-720.01951 180,540.00001 180,-540.00001 231.5658,0.0195 180,540.00001 H -360 l -180,-540.00001"
         id="path4-3" />
    </g>
    <g
       id="g6"
       transform="translate(101.72013,910.00976)">
      <path
         style="display:inline;fill:none;stroke:#ffffff;stroke-width:270;stroke-linecap:round;stroke-linejoin:round;stroke-dasharray:none;stroke-opacity:1"
         d="m 681.56582,-810.00001 -180.00015,540 h -180 l 180,-540 z"
         id="path3-64-2" />
      <path
         style="display:inline;fill:none;stroke:#000000;stroke-width:180;stroke-linecap:round;stroke-linejoin:round;stroke-dasharray:none;stroke-opacity:1"
         d="m 321.56572,-270.00001 180,-540 h 180 l -180,540 z"
         id="path3-6" />
      <path
         style="fill:none;stroke:#ffffff;stroke-width:270;stroke-linecap:round;stroke-linejoin:round;stroke-dasharray:none;stroke-opacity:1"
         d="m 270,-810 231.56572,-10e-6 180,540 h -180 l -180,-540"
         id="path6" />
      <path
         style="display:inline;fill:none;stroke:#000000;stroke-width:180;stroke-linecap:round;stroke-linejoin:round;stroke-dasharray:none;stroke-opacity:1"
         d="m 321.56572,-810.00001 180,540 h 180 l -180,-540 z"
         id="path3" />
      <path
         style="fill:none;stroke:#ffffff;stroke-width:270;stroke-linecap:round;stroke-linejoin:round;stroke-dasharray:none;stroke-opacity:1"
         d="M -90,-810 90,-270 270,-810"
         id="path5" />
      <path
         style="fill:none;stroke:#000000;stroke-width:180;stroke-linecap:round;stroke-linejoin:round;stroke-dasharray:none;stroke-opacity:1"
         d="M -89.999994,-810 90,-270.00001 270,-810"
         id="path1" />
    </g>
  </g>
</svg>
